<svg width="167" height="167" viewBox="0 0 167 167" fill="none" xmlns="http://www.w3.org/2000/svg">
<rect width="167" height="167" rx="32" fill="white"/>
<path d="M48.9691 38.0359C59.9058 38.5336 57.4094 35.672 64.6609 48.3623C70.0103 57.8177 75.2409 67.2732 80.3526 76.8531C82.7301 81.332 85.6125 84.1215 91.1967 84.2459C96.781 84.3703 98.9705 84.3703 103.131 84.2459C106.816 84.1215 107.694 81.5808 106.03 78.3461C104.247 74.6136 102.226 71.1301 100.086 67.6465C97.2331 62.9187 96.9954 58.4398 99.9673 53.7121C102.385 48.4426 104.603 45.5008 106.862 41.3951C108.17 39.0312 110.072 38.0359 112.687 38.0359C117.086 38.1603 121.365 37.9115 125.764 38.0359C131.47 38.1603 132.658 40.3998 129.805 45.874C128.141 49.2332 126.358 52.4679 124.456 55.7027C120.414 62.7943 116.491 70.0103 112.449 77.1019C109.953 81.4564 109.953 85.4377 112.449 89.9166C118.155 99.8697 123.624 109.823 129.211 119.9C129.924 121.145 130.637 122.389 131.113 123.757C132.064 126.37 131.113 128.609 128.617 128.734C122.673 128.983 116.729 129.107 110.904 128.485C109.121 128.236 107.1 125.748 105.911 123.757C100.562 114.551 95.45 105.219 90.3383 95.8884C82.2546 81.4564 85.2899 83.0029 70.3115 82.7541C68.1717 82.7541 65.7381 82.5053 63.5984 82.7541C60.8642 83.0029 60.1435 85.4377 61.3323 88.0504C62.7588 91.1607 64.4231 94.3955 66.3251 97.1326C70.6047 103.353 70.1292 109.076 66.444 115.546C58.9548 128.734 59.1925 128.609 44.5707 128.983C35.2983 129.231 33.9906 126.868 38.9835 118.283C44.2141 109.325 48.9691 99.9941 54.3186 91.0363C57.6471 85.5621 57.4094 80.9588 54.1997 75.609C48.7314 66.5267 43.7386 57.0713 38.6269 47.8646C37.9136 46.6205 37.0814 45.3763 36.6059 44.1322C35.1794 40.5242 36.2493 38.658 40.0534 38.2847C40.41 38.2847 40.8855 38.2847 41.2421 38.2847C43.3819 38.0359 45.5217 38.0359 48.9691 38.0359Z" fill="black"/>
<path d="M77.7247 127.241L73.6969 118.29C72.8084 116.316 74.2526 114.082 76.4177 114.082H88.5217C89.6957 114.082 90.7607 114.771 91.2425 115.841L95.2703 124.792C96.1588 126.766 94.7146 129 92.5495 129H80.4455C79.2715 129 78.2065 128.311 77.7247 127.241Z" fill="black"/>
</svg>
